<svg id="Capa_1" enable-background="new 0 0 512 512" height="512" viewBox="0 0 512 512" width="512" xmlns="http://www.w3.org/2000/svg"><path d="m464.327 160.717-203.916 204.055-113.505 113.462-70.626-42.37-.078-.049-42.412-70.697 317.421-317.517 77.775 35.348z" fill="#ffae3b"/><path d="m464.327 160.717-203.916 204.055-113.505 113.462-70.626-42.37 352.706-352.915z" fill="#ff7127"/><path d="m146.906 478.234-9.454 9.454c-9.023 9.023-21.001 14.609-33.715 15.712l-23.582 2.058-36.741-36.727-36.876-36.862 2.058-23.568c1.117-12.714 6.696-24.685 15.726-33.715l9.468-9.468z" fill="#ffdd7d"/><path d="m90.408 421.736 56.498 56.498-9.454 9.454c-9.023 9.023-21.001 14.609-33.715 15.712l-23.582 2.058-36.741-36.727z" fill="#ffae3b"/><path d="m444.91 310c-1.04-1.14-2.13-2.27-3.24-3.38l-.006-.011s-.001-.002-.002-.004c0-.001-.001-.002-.001-.002-.001-.002-.001-.003-.001-.003-22.68-22.45-53.17-35.23-85.1-35.23-32.15 0-62.38 12.51-85.11 35.23-22.73 22.73-35.25 52.94-35.25 85.08s12.51 62.34 35.24 85.07l.01.01c1.14 1.14 2.3 2.25 3.48 3.33 1.78 1.66 3.61 3.25 5.48 4.78 21.43 17.58 48.06 27.13 76.15 27.13 32.14 0 62.37-12.51 85.1-35.24 22.73-22.72 35.25-52.94 35.25-85.08 0-30.56-11.32-59.38-32-81.68z" fill="#9adb05"/><path d="m476.91 391.68c0 32.14-12.52 62.36-35.25 85.08-22.73 22.73-52.96 35.24-85.1 35.24-28.09 0-54.72-9.55-76.15-27.13-1.87-1.53-3.7-3.12-5.48-4.78l169.98-170.09c20.68 22.3 32 51.12 32 81.68z" fill="#00ca76"/><path d="m80.155 505.458-74.72 6.527c-1.443.113-2.864-.389-3.889-1.386-.028-.014-.057-.042-.078-.064-1.047-1.047-1.577-2.496-1.45-3.967l6.52-74.699c20.025.679 38.12 9.1 51.364 22.373 13.202 13.23 21.588 31.261 22.253 51.216z" fill="#07485e"/><path d="m488.566 136.491-24.24 24.225-113.115-113.115 24.225-24.211c31.183-31.183 81.925-31.183 113.123-.014l.021.021c15.104 15.103 23.42 35.185 23.42 56.54-.007 21.361-8.323 41.443-23.434 56.554z" fill="#ff7127"/><path d="m488.566 136.491-24.24 24.225-56.554-56.554 80.787-80.787.021.021c15.104 15.104 23.42 35.186 23.42 56.541-.007 21.361-8.323 41.443-23.434 56.554z" fill="#ff1f3e"/><path d="m80.155 505.458-74.72 6.527c-1.443.113-2.864-.389-3.889-1.386l56.356-56.356c13.202 13.229 21.588 31.26 22.253 51.215z" fill="#002438"/><path d="m409.75 366.74-58.18 58.91c-2.81 2.85-6.63 4.45-10.63 4.46h-.04c-3.98 0-8.56-1.84-11.37-4.66l-25.02-25.51c-5.86-5.86-5.86-15.36 0-21.22 5.85-5.86 15.35-5.86 21.21 0l15.11 15.11 47.57-48.17c5.82-5.9 15.41-6.26 21.31-.44 5.89 5.83 5.86 15.62.04 21.52z" fill="#f3eee9"/><path d="m409.75 366.74-58.18 58.91c-2.81 2.85-6.63 4.45-10.63 4.46h-.04c-3.98 0-8.56-1.84-11.37-4.66l80.18-80.23c5.89 5.83 5.86 15.62.04 21.52z" fill="#e9dfda"/></svg>